<svg xmlns="http://www.w3.org/2000/svg" width="1200" height="900" viewBox="0 0 1200 900">
  <rect width="1200" height="900" fill="#FFF6EE"/>
  <text x="64" y="72" font-family="Georgia,serif" font-size="36" font-weight="700" fill="#262628">Your cart</text>
  <text x="64" y="108" font-family="system-ui,sans-serif" font-size="14" fill="#6B6864">3 items · Crumb &amp; Co.</text>

  <rect x="64" y="148" width="720" height="120" rx="16" fill="#F3EBE3"/>
  <rect x="88" y="172" width="72" height="72" rx="12" fill="#C6C2F2" fill-opacity="0.55"/>
  <text x="188" y="200" font-family="system-ui,sans-serif" font-size="18" font-weight="700" fill="#262628">Sourdough Loaf</text>
  <text x="188" y="228" font-family="system-ui,sans-serif" font-size="14" fill="#6B6864">Custom · Sesame crust</text>
  <text x="700" y="214" font-family="system-ui,sans-serif" font-size="16" font-weight="600" fill="#262628">Rs 850</text>

  <rect x="64" y="288" width="720" height="120" rx="16" fill="#F3EBE3"/>
  <rect x="88" y="312" width="72" height="72" rx="12" fill="#D6DC82" fill-opacity="0.5"/>
  <text x="188" y="340" font-family="system-ui,sans-serif" font-size="18" font-weight="700" fill="#262628">Almond Croissant</text>
  <text x="188" y="368" font-family="system-ui,sans-serif" font-size="14" fill="#6B6864">Qty 2</text>
  <text x="700" y="354" font-family="system-ui,sans-serif" font-size="16" font-weight="600" fill="#262628">Rs 1,200</text>

  <rect x="64" y="428" width="720" height="120" rx="16" fill="#F3EBE3"/>
  <rect x="88" y="452" width="72" height="72" rx="12" fill="#D86072" fill-opacity="0.3"/>
  <text x="188" y="480" font-family="system-ui,sans-serif" font-size="18" font-weight="700" fill="#262628">Burnt Basque Cheesecake</text>
  <text x="188" y="508" font-family="system-ui,sans-serif" font-size="14" fill="#6B6864">Slice</text>
  <text x="700" y="494" font-family="system-ui,sans-serif" font-size="16" font-weight="600" fill="#262628">Rs 950</text>

  <rect x="820" y="148" width="316" height="400" rx="20" fill="#262628"/>
  <text x="848" y="200" font-family="system-ui,sans-serif" font-size="13" fill="#FFF6EE" fill-opacity="0.55" letter-spacing="2">SUMMARY</text>
  <text x="848" y="248" font-family="system-ui,sans-serif" font-size="15" fill="#FFF6EE">Subtotal</text>
  <text x="1020" y="248" font-family="system-ui,sans-serif" font-size="15" fill="#FFF6EE">Rs 3,000</text>
  <text x="848" y="288" font-family="system-ui,sans-serif" font-size="15" fill="#FFF6EE">Delivery</text>
  <text x="1020" y="288" font-family="system-ui,sans-serif" font-size="15" fill="#FFF6EE">Rs 150</text>
  <line x1="848" y1="320" x2="1104" y2="320" stroke="#FFF6EE" stroke-opacity="0.2"/>
  <text x="848" y="368" font-family="Georgia,serif" font-size="22" font-weight="700" fill="#FFF6EE">Total</text>
  <text x="1000" y="368" font-family="Georgia,serif" font-size="22" font-weight="700" fill="#D86072">Rs 3,150</text>
  <rect x="848" y="420" width="256" height="56" rx="28" fill="#D86072"/>
  <text x="910" y="454" font-family="system-ui,sans-serif" font-size="15" font-weight="600" fill="#FFF6EE">Checkout</text>

  <text x="64" y="620" font-family="system-ui,sans-serif" font-size="12" fill="#6B6864" letter-spacing="2">INVENTORY VALIDATED · READY TO BAKE</text>
</svg>
